<svg xmlns="http://www.w3.org/2000/svg" viewBox="0 0 64 64" width="16" height="16" fill="none">
  <!-- Lighthouse body - trapezoid -->
  <polygon points="24,56 40,56 36,24 28,24" fill="#2563eb"/>
  <!-- Windows -->
  <rect x="30" y="31" width="4" height="4" rx="1" fill="#fff" opacity=".85"/>
  <rect x="30" y="40" width="4" height="4" rx="1" fill="#fff" opacity=".85"/>
  <rect x="30" y="49" width="4" height="4" rx="1" fill="#fff" opacity=".85"/>
  <!-- Lantern room -->
  <rect x="27" y="18" width="10" height="6" rx="1" fill="#2563eb"/>
  <!-- Lantern cap -->
  <polygon points="29,18 35,18 32,14" fill="#2563eb"/>
  <!-- Light beam 1 -->
  <line x1="37" y1="20" x2="48" y2="16" stroke="#f59e0b" stroke-width="2.5" stroke-linecap="round"/>
  <circle cx="48" cy="16" r="3" fill="#f59e0b"/>
  <!-- Light beam 2 -->
  <line x1="37" y1="18" x2="52" y2="10" stroke="#f59e0b" stroke-width="2.5" stroke-linecap="round"/>
  <circle cx="52" cy="10" r="3" fill="#f59e0b"/>
  <!-- Light beam 3 -->
  <line x1="37" y1="16" x2="56" y2="4" stroke="#f59e0b" stroke-width="2.5" stroke-linecap="round"/>
  <circle cx="56" cy="4" r="3" fill="#f59e0b"/>
  <!-- Base -->
  <rect x="22" y="56" width="20" height="3" rx="1" fill="#2563eb"/>
</svg>
